<svg width="24" height="24" viewBox="0 0 24 24" xmlns="http://www.w3.org/2000/svg">
  <path fill="currentColor" d="M3 5.5A1.5 1.5 0 0 1 4.5 4h15A1.5 1.5 0 0 1 21 5.5v13a1.5 1.5 0 0 1-1.5 1.5h-15A1.5 1.5 0 0 1 3 18.5v-13ZM4.5 5.5v13h15v-13h-15Z"/>
  <path fill="currentColor" d="M8.78 9.22a.75.75 0 0 1 0 1.06l-2.5 2.5a.75.75 0 0 1-1.06 0l-1-1a.75.75 0 1 1 1.06-1.06l.47.47 1.97-1.97a.75.75 0 0 1 1.06 0ZM10.5 10.25a.75.75 0 0 1 .75-.75h6a.75.75 0 0 1 0 1.5h-6a.75.75 0 0 1-.75-.75Z"/>
  <path fill="currentColor" d="M8.78 14.22a.75.75 0 0 1 0 1.06l-2.5 2.5a.75.75 0 0 1-1.06 0l-1-1a.75.75 0 1 1 1.06-1.06l.47.47 1.97-1.97a.75.75 0 0 1 1.06 0ZM10.5 15.25a.75.75 0 0 1 .75-.75h6a.75.75 0 0 1 0 1.5h-6a.75.75 0 0 1-.75-.75Z"/>
</svg>
